<?xml version="1.0" encoding="utf-8"?>
<!-- Generator: Adobe Illustrator 19.0.0, SVG Export Plug-In . SVG Version: 6.00 Build 0)  -->
<svg version="1.1" id="Layer_1" xmlns="http://www.w3.org/2000/svg" xmlns:xlink="http://www.w3.org/1999/xlink" x="0px" y="0px"
	 viewBox="0 0 504 360" style="enable-background:new 0 0 504 360;" xml:space="preserve">
<g id="XMLID_1_">
	<path id="XMLID_55_" d="M210.8,134.5c0,7.4-6.5,12-14.1,9.8c-9.1-2.6-18.1-5.5-27.2-8.2c-9.9-2.9-19.9-5.8-29.8-8.5
		c-9.6-2.6-19.2-5.1-28.9-7.4c-10.9-2.6-21.9-5-33.2-5.4c-5.5-0.2-10.8,0.8-16.1,2.4c-11.4,3.3-21.9,8.9-32.6,13.9
		c-4.3,2-8.7,4-13,5.9c-0.5,0.2-1.3-0.2-1.9-0.3c0.2-0.6,0.2-1.6,0.7-1.9c12.8-8.7,25.2-18.1,39.2-25c12.5-6.2,25.7-7.7,39.5-6.4
		c16.6,1.6,33,4.1,49.3,7.4c12.6,2.6,25.2,5.2,37.7,8c7.7,1.7,15.3,3.8,22.9,5.8C207.7,125.8,210.8,129.8,210.8,134.5z"/>
	<path id="XMLID_4_" d="M488.7,134.5c-2.2-1.5-4.4-3.1-6.6-4.6c-9.8-6.2-19.4-12.7-29.5-18.6c-8-4.7-16.8-7.6-26.2-8
		c-14.9-0.7-29.6,1.4-44.2,3.9c-8.9,1.5-17.7,3.2-26.5,4.9v0c0,0-1.8,0.3-4.6,0.9c-1.6,0.3-3.2,0.6-4.8,0.9
		c-0.7,0.1-1.4,0.3-2.1,0.5c-5.2,1.1-11.2,2.4-16.4,3.8c0,0,0,0,0,0c-6.7,1.5-13.4,3.1-20.1,4.7c-3.1,0.8-6.2,1.5-9,2.8
		c-4.8,2.2-6.9,8-4.9,13c1.8,4.8,7.2,7.5,12.2,6c9-2.6,17.9-5.4,26.8-8c15-4.3,30.1-8.6,45.2-12.6c13.4-3.6,26.9-6.7,40.6-8.6
		c6.5-0.9,12.9-0.9,19.3,0.6c7.7,1.7,15,4.7,22.1,8c9.1,4.2,18.3,8.5,27.4,12.7c0.7,0.3,2.1,0.4,2.4,0
		C490.8,135.6,489.5,135.1,488.7,134.5z"/>
	<path id="XMLID_5_" d="M192.2,224.6c-5.8-5.8-12.4-8.3-20.7-5.6c-8.8,3-17.8,5.2-27,6.6c-20,2.9-39.3,0.5-57.7-8
		c-6.6-3.1-13-6.6-18.1-11.9c-5.9-6.1-10.7-13-12-21.7c-0.2-1.2-0.5-2.3-0.9-4.1c-1.4,9.6,1.1,17.7,5.9,25.3
		c1.4,2.1,1.2,3.5-1.1,4.9c-1.2,0.7-2.7,1.3-4.1,1.6c-4.5,0.9-8.9,0.4-12.9-2.3c2.5,4.6,6.6,6.7,11.4,7.9c4.8,1.2,9.3,0.5,13.6-2.2
		c-2.2,4.2-6.2,5.5-10.3,6.4c-4.1,0.9-8.2,0.6-12.1-1.2c3.9,4.2,9,5.7,14.5,5.8c5.6,0.1,10.6-1.3,15.1-5.6c-0.7,3.4-2.6,5.3-4.9,6.6
		c-6.7,3.9-13.8,5.9-21.5,2.8c4.8,4.1,10.5,5.2,16.5,4.8c6.1-0.3,11.6-2.3,16.1-6.6c-5.9,8.4-13.8,13.4-24.1,14.6
		c12.9,1.9,23.4-2.8,32.2-11.5c0,0-1.9,4.8-4.9,8.5c-1.2,1.4-2.4,2.8-3.7,4c-2.9,2.7-6.5,4.4-10.4,5.5c0.7,0.2,1.3,0.2,2,0.2
		c5.4-0.3,10.2-2.1,14.5-5c0,0,0,0,0,0c2.9-1.7,5.7-4.3,7.8-6.6c0,0,0,0.1,0,0.1c0.1-0.2,0.2-0.3,0.3-0.5c0,0,0,0,0,0v0
		c1.2-1.7,2.2-3.2,3.2-4.6c0.2,0.2,0.4,0.3,0.5,0.5c-3.4,9.5-9.7,16.3-19.6,19.5c0.9,0.1,1.9,0.3,2.7,0.1
		c10.8-1.6,18.9-7.1,24.5-16.5c0.3-0.5,0.8-0.8,1.1-1.1c0.2,0.1,0.3,0.3,0.5,0.4c-2.4,9.1-7.5,16-16,20.4
		c11.7-2.1,19.1-9.5,24.4-19.8c2.1,3.7-0.9,10.4-8.4,20.4c7.7-4.8,14.6-10.4,17.5-19.6c1.5,3.7,0.8,7.3-0.3,10.8
		c-1.2,3.5-2.6,6.9-3.9,10.5c3.4-2.7,6-6.1,8-9.9c2-3.8,3.5-7.8,5.1-11.7c2.7,2.4,3.1,10,0.9,21.4c4.4-6.6,6.9-13.8,7.4-21.8
		c4.9,4.4,5,10.4,5.7,16.9c2.6-6.6,3.5-12.9,2.2-19.3c1.5-0.8,2.6-0.5,3.3,0.8c0.7,1.2,1.5,2.4,1.8,3.8c0.8,3.7,1.3,7.5,1.9,11.1
		c2.6-5.6,3.4-11.6,3-18.1c5.4,2.5,6.5,7.8,8.5,12.9c1.3-5.8,0.7-11.1-1.1-16.5c2.8-1.1,5.5-2.2,8.1-3.3c2-0.9,4.1-1,6.1-0.1
		c2.3,1,4.6,2.1,6.9,3.3c1.1,0.6,2.1,1,3-0.1C193.5,226.5,193.1,225.5,192.2,224.6z"/>
	<path id="XMLID_3_" d="M459.7,210c-1.5,0.5-3.1,1.1-4.7,1.7c-5.7,1.8-13.5-1.3-13.6-3.9l0,0c0,0,0,0,0,0c0,0,0,0,0-0.1
		c0-0.4,0.1-0.8,0.2-1.2c0-0.1,0.1-0.2,0.1-0.3c0,0,0,0,0-0.1c0,0,0,0,0,0c0,0,0,0,0,0c1.2-2.4,2.6-4.7,3.8-7.2
		c2.9-5.7,3-11.8,2.5-17.9c-0.8,3-1.2,6.2-2.4,9.1c-2.9,7.5-7.5,14.1-14,18.9c-17,12.7-36.4,18.1-57.4,18.1c-13.5,0-26.6-3-39.4-7
		c-0.6-0.2-1.1-0.3-1.8-0.4c-2.7-0.7-4.9-1.5-6.4-1.5c0,0,0,0,0,0c-0.3,0-0.7-0.1-1-0.1c-5.7,0.1-10,3-13.9,6.8
		c-0.6,0.5-0.9,1.7-0.8,2.5c0.1,0.5,1.3,1.2,1.8,1c0.8-0.3,1.5-1.1,2.3-1.7c0.4-0.3,0.8-0.6,1.3-0.7c1.6-0.5,3.2-0.9,4.8-1.5
		c0,0,0,0,0,0c1.6-0.4,3.8-1.2,7.4,0.7c0.3,0.1,0.5,0.3,0.8,0.4c0,0,0,0,0,0c0.2,0.1,0.3,0.2,0.5,0.2c1.8,0.8,3.9,1.4,5.7,2.4
		c-2,5.3-2.3,10.5-1.1,15.9c3.9-9.8,5.5-12.2,8.4-12.3c0.2,3.1,0.2,6.1,0.5,9.2c0.4,3,0.9,6.1,2.6,8.7c0.4-3.3,0.6-6.5,1.3-9.6
		c0.4-2,1.5-3.8,2.5-5.6c0.7-1.2,1.8-1.3,2.9-0.4c-1.2,6.4-0.4,12.6,2.1,18.5c0.8-5.9,0.9-11.9,5.9-16.2c0.4,8,2.9,15.2,7.3,22.2
		c-0.5-3.3-1-6.1-1.3-9c-0.3-4-0.5-8,1.3-11.7c0.2-0.4,0.6-0.8,1-1.1c0.3,0.4,0.7,0.8,0.8,1.2c1.2,7.8,5.7,13.6,10.7,19.2
		c0.5,0.5,1.1,0.9,2,1.6c-5.3-11-6.9-18.5-4.6-21.7c0.1,0.2,0.2,0.4,0.3,0.6c1.9,7,6.8,11.6,12.1,15.9c0.8,0.7,1.6,1.3,2.6-0.1
		c-0.4-0.5-0.8-1-1.1-1.6c-2.6-4-5.2-8-5.7-13c-0.1-0.7,0.3-1.4,0.5-2.2c0.5,0.5,1.1,0.9,1.4,1.5c3.5,6.8,8.5,12,15.3,15.5
		c2.4,1.3,5,2.4,7.9,2.2c-4.1-2-7.6-4.8-10.3-8.5c-2.7-3.6-4.8-7.5-5.1-12.2c3,5.2,7.1,9.4,12.1,12.7c5.7,3.8,13.2,5.9,16.5,4.8
		c-10.7-4-20.3-13.9-19.4-20.2c3,5.2,7,9,11.8,12.2c4.4,2.9,13.1,5.7,15.7,4.3c-10.1-3.8-17.7-11.2-19.1-18.3c9,9.2,19.7,14,32.7,12
		c-11.5-2.1-22.9-9.1-24.4-15.2c8.9,10.2,27.9,8.4,32.9,2.1c-4.9,2.2-9.6,2.2-14.4,0.7c-3.8-1.2-7.5-2.6-10.2-5.8
		c-0.8-0.9-1.2-2.2-1.8-3.2c9.6,8.4,25.7,4.8,29.6-1.1c-0.1,0-0.1-0.1-0.2-0.1c-0.2,0.1-0.4,0.2-0.5,0.3c-6.6,2.8-12.9,1.7-18.9-1.8
		c-1.9-1.1-2.5-2.2-2.6-3.6c1.5,1.1,3,1.9,4.6,2.3c0,0,0,0,0,0c0.3,0.1,0.7,0.2,1.2,0.3c0.9,0.2,1.8,0.2,2.8,0.1
		c1.6-0.1,3.4-0.3,4.8-0.5c0,0,0,0,0,0C453.9,216.3,458.9,212.8,459.7,210z"/>
</g>
</svg>
