<svg height="512pt" viewBox="-44 0 512 512.018" width="512pt" xmlns="http://www.w3.org/2000/svg"><path d="m160.007812 136.050781c-4.414062 0-8 3.574219-8 8l-.0625 168.039063c0 17.609375-14.328124 31.929687-31.9375 31.929687-4.421874 0-8 3.574219-8 8 0 4.421875 3.578126 8 8 8 26.433594 0 47.9375-21.503906 47.9375-47.929687l.0625-168.039063c0-4.417969-3.574218-8-8-8zm0 0"/><path d="m176.007812 104.011719c-.015624 0-.023437.007812-.039062.007812h-111.960938c-13.230468 0-24 10.765625-24 24v94.757813c-25.398437 22.785156-39.9999995 55.023437-39.9999995 89.242187v192c0 4.421875 3.5781255 8 7.9999995 8 4.425782 0 8-3.578125 8-8v-192c0-24.457031 8.65625-47.722656 24-66.234375v98.242188c0 .183594.097657.335937.105469.511718.289063 43.832032 36 79.414063 79.894531 79.414063 43.90625 0 79.625-35.582031 79.914063-79.414063.007813-.175781.101563-.328124.101563-.511718v-98.234375c15.335937 18.503906 23.984374 41.761719 23.984374 66.226562v192c0 4.421875 3.578126 8 8 8 4.425782 0 8-3.578125 8-8v-192c0-34.234375-14.589843-66.464843-39.984374-89.21875v-94.78125c0-13.234375-10.773438-24.007812-24.015626-24.007812zm-56 303.941406c-28.292968 0-52.3125-18.496094-60.703124-44.015625 14.671874 17.152344 36.425781 28.082031 60.703124 28.082031 24.289063 0 46.050782-10.929687 60.722657-28.089843-8.394531 25.527343-32.417969 44.023437-60.722657 44.023437zm64.015626-96.253906c-.007813.144531-.078126.246093-.078126.390625 0 35.25-28.679687 63.929687-63.9375 63.929687-35.246093 0-63.917968-28.679687-63.917968-63.929687 0-.144532-.074219-.246094-.082032-.390625v-183.679688c0-4.417969 3.585938-8 8-8h112c.007813 0 .015626-.007812.015626-.007812 4.417968.015625 8 3.597656 8 8.007812zm0 0"/><path d="m418.882812 298.625c.039063-.101562.070313-.191406.109376-.285156 3.21875-8.167969 5.046874-17.027344 5.046874-26.320313 0-.027343-.015624-.050781-.015624-.082031v-31.96875c0-.054688 0-.101562 0-.160156v-7.503906c0-.109376 0-.214844 0-.328126v-59.886718c0-.054688 0-.105469 0-.160156v-67.710938c0-.058594 0-.105469 0-.160156v-7.425782c.007812-.167968.007812-.320312 0-.488281v-59.824219c0-.054687 0-.101562 0-.160156v-7.605468c0-.058594 0-.105469 0-.160157v-20.375c0-4.425781-3.574219-7.9999998-8-7.9999998-4.421876 0-8 3.5742188-8 7.9999998v1.140625l-6.765626-6.765625c-3.128906-3.128906-8.183593-3.128906-11.3125 0-3.128906 3.128907-3.128906 8.183594 0 11.3125l18.078126 18.070313v1.167968l-22.046876 22.046876-22.632812-22.621094 18.695312-18.695313c3.128907-3.128906 3.128907-8.1875 0-11.3125-3.125-3.128906-8.183593-3.128906-11.308593 0l-18.699219 18.695313-18.710938-18.710938c-3.128906-3.128906-8.183593-3.128906-11.3125 0-3.125 3.125-3.125 8.183594 0 11.308594l18.714844 18.714844-22.625 22.613281-22.058594-22.054687v-1.136719l18.113282-18.117188c3.128906-3.128906 3.128906-8.1875 0-11.3125-3.128906-3.128906-8.183594-3.128906-11.3125 0l-6.800782 6.796875v-1.140625c0-4.425781-3.574218-7.9999998-8-7.9999998-4.421874 0-8 3.5742188-8 7.9999998v88.269531.160157 7.007812c-.03125.386719-.03125.746094 0 1.128907v67.335937.160156 99.945313c0 9.207031 1.808594 17.992187 4.96875 26.101562.082032.234375.152344.457032.25.679688 6.886719 17.121094 20.167969 30.960937 36.871094 38.632812.25.128906.488282.265625.753906.359375 8.917969 3.976563 18.773438 6.226563 29.15625 6.226563 10.347657 0 20.171876-2.234375 29.066407-6.175782.367187-.128906.6875-.320312 1.03125-.503906 16.671875-7.722656 29.902343-21.585937 36.746093-38.722656zm-10.84375-26.542969c-.007812 2.710938-.261718 5.359375-.636718 7.976563l-10.113282-10.113282 10.734376-10.726562v12.800781c0 .023438.015624.039063.015624.0625zm-.015624-104.535156v1.167969l-22.046876 22.046875-22.625-22.625 22.632813-22.621094zm-10.726563-33.351563 10.726563-10.730468v21.457031zm10.726563 57.144532v21.46875l-10.734376-10.734375zm-55.972657-34.515625-22.640625-22.628907 22.628906-22.632812 22.632813 22.640625zm22.613281 45.25-22.625 22.625-22.621093-22.625 22.621093-22.625zm0 67.871093-22.625 22.632813-22.621093-22.632813 22.621093-22.625zm-11.3125-33.933593 22.625-22.625 22.046876 22.046875v1.167968l-22.046876 22.039063zm44.671876-180.441407v21.472657l-10.734376-10.738281zm0 44.09375v1.179688l-22.039063 22.039062-22.632813-22.640624 22.625-22.625zm-55.992188-55.980468 22.632812 22.621094-22.625 22.625-22.628906-22.632813zm-55.992188 11.871094 10.746094 10.742187-10.746094 10.746094zm0 44.109374 22.058594-22.054687 22.632813 22.632813-22.632813 22.632812-22.058594-22.058594zm0 23.777344 10.746094 10.753906-10.746094 10.734376zm0 44.113282 22.058594-22.058594 22.632813 22.632812-22.625 22.625-22.066407-22.054687zm0 23.765624 10.753907 10.753907-10.753907 10.75zm0 44.128907 22.066407-22.0625 22.625 22.625-22.625 22.621093-22.066407-22.054687zm.640626 44.609375c-.375-2.632813-.640626-5.304688-.640626-8.039063v-12.816406l10.753907 10.742187zm5.441406 17.183594 15.984375-15.984376 22.625 22.632813-16.601563 16.589844c-9.40625-5.429688-17.078125-13.511719-22.007812-23.238281zm49.917968 30.777343c-3.972656 0-7.847656-.433593-11.589843-1.226562l11.589843-11.582031 11.59375 11.589843c-3.742187.785157-7.617187 1.21875-11.59375 1.21875zm27.914063-7.523437-16.601563-16.597656 22.625-22.632813 15.984376 15.984375c-4.929688 9.71875-12.601563 17.800781-22.007813 23.246094zm0 0"/></svg>