<svg id="Layer_1" data-name="Layer 1" xmlns="http://www.w3.org/2000/svg" viewBox="0 0 209.64 71.97"><defs><style>.cls-1{fill:#fff;}</style></defs><title>nl_logo_header_white</title><path class="cls-1" d="M107,32,119.28,3.66h-3.72l-9.11,20.9-9-20.9H93.76L105.92,32Zm-26.3.69c5.86,0,9.5-4.1,9.5-10.7V3.66H86.74V21.57c0,2.13,0,4-1.39,5.69a6.3,6.3,0,0,1-9.36,0c-1.39-1.72-1.39-3.56-1.39-5.69V3.66H71.16V22c0,6.6,3.65,10.7,9.51,10.7m58.91-4h-13V18.39h13V15h-13V7h13V3.66H123.12V32h16.46Zm42.82,4c5.86,0,9.51-4.1,9.51-10.7V3.66h-3.44V21.57c0,2.13,0,4-1.39,5.69a6.3,6.3,0,0,1-9.36,0c-1.39-1.72-1.39-3.56-1.39-5.69V3.66H172.9V22c0,6.6,3.64,10.7,9.5,10.7M151,22.9H162.5l4.36,9.1h3.69L157.33,3.66h-1.07L142.84,32h3.81Zm5.8-12.28L161,19.55h-8.45Zm43.11-7.1a3.13,3.13,0,0,0-2.27.94,3.27,3.27,0,0,0-1,2.32A3.3,3.3,0,0,0,199.88,10a3.29,3.29,0,0,0,2.31-1,3.1,3.1,0,0,0,.95-2.28,3.26,3.26,0,0,0-3.26-3.26m2,5.27a2.9,2.9,0,0,1-2,.85A2.9,2.9,0,0,1,197,6.78a2.85,2.85,0,0,1,.87-2,2.71,2.71,0,0,1,2-.82,2.87,2.87,0,0,1,2.88,2.89,2.73,2.73,0,0,1-.84,2M122.36,58.25H111.21V50.09h-1.79V68.88h1.79V59.77h11.15v9.11h1.8V50.09h-1.8Zm24.83,1.68h10.47V58.4H147.19V51.61h11.18V50.09h-13V68.88H158.5V67.35H147.19Zm54.33-54c0-.7-.51-1-1.55-1h-1.38V8.58h.63V7H200l.78,1.61h.7l-.84-1.7a1,1,0,0,0,.87-1m-1.65.67h-.65V5.28h.63c.7,0,1,.18,1,.66s-.32.62-1,.62m-9.12,54a6.13,6.13,0,0,0-1.55-.95,13,13,0,0,0-1.88-.64l-4.58-1.13a7,7,0,0,1-1.09-.35,3.07,3.07,0,0,1-.91-.55,2.45,2.45,0,0,1-.62-.83A2.71,2.71,0,0,1,179.9,55a3.66,3.66,0,0,1,.39-1.76,3.26,3.26,0,0,1,1-1.14,4.41,4.41,0,0,1,1.5-.63,8,8,0,0,1,1.78-.2,6.35,6.35,0,0,1,1.91.28,4.83,4.83,0,0,1,1.6.81,4.19,4.19,0,0,1,1.13,1.34,4.32,4.32,0,0,1,.49,1.88h1.79a5.35,5.35,0,0,0-2.08-4.36,6.47,6.47,0,0,0-2.21-1.11,9.66,9.66,0,0,0-2.66-.37,8,8,0,0,0-3.24.57,5.8,5.8,0,0,0-2,1.38,4.38,4.38,0,0,0-1,1.74,6.14,6.14,0,0,0-.26,1.6,4.52,4.52,0,0,0,.35,1.87,4,4,0,0,0,.94,1.29,4.4,4.4,0,0,0,1.35.84,12.89,12.89,0,0,0,1.59.53l4.19,1a12.6,12.6,0,0,1,1.34.4,5.69,5.69,0,0,1,1.25.65,3.15,3.15,0,0,1,.92,1,2.54,2.54,0,0,1,.36,1.37,3,3,0,0,1-.5,1.75,4.3,4.3,0,0,1-1.25,1.19,5.77,5.77,0,0,1-1.62.67,6.9,6.9,0,0,1-1.6.21,11,11,0,0,1-2.43-.26,5.25,5.25,0,0,1-2-.82,4,4,0,0,1-1.3-1.55,5.34,5.34,0,0,1-.45-2.42H177.5a6.69,6.69,0,0,0,.46,3,5.3,5.3,0,0,0,1.54,2,6.72,6.72,0,0,0,2.42,1.16,12.92,12.92,0,0,0,5.92.09,7.71,7.71,0,0,0,2-.79,4.49,4.49,0,0,0,1.27-1.1,6,6,0,0,0,.71-1.19,4.41,4.41,0,0,0,.31-1.12,6.23,6.23,0,0,0,.07-.85,4.71,4.71,0,0,0-.38-2,4.11,4.11,0,0,0-1.06-1.38m-103.06,0a6.31,6.31,0,0,0-1.55-.95A13.39,13.39,0,0,0,84.26,59l-4.58-1.13a7.44,7.44,0,0,1-1.1-.35,3.15,3.15,0,0,1-.9-.55,2.32,2.32,0,0,1-.62-.83A2.71,2.71,0,0,1,76.83,55a3.66,3.66,0,0,1,.4-1.76,3.26,3.26,0,0,1,1-1.14,4.41,4.41,0,0,1,1.5-.63,7.94,7.94,0,0,1,1.77-.2,6.3,6.3,0,0,1,1.91.28,4.78,4.78,0,0,1,1.61.81,4.32,4.32,0,0,1,1.13,1.34,4.46,4.46,0,0,1,.49,1.88h1.79a5.35,5.35,0,0,0-2.08-4.36,6.47,6.47,0,0,0-2.21-1.11,9.66,9.66,0,0,0-2.66-.37,7.94,7.94,0,0,0-3.24.57,6,6,0,0,0-2,1.38,4.35,4.35,0,0,0-1,1.74A5.8,5.8,0,0,0,75,55a4.52,4.52,0,0,0,.36,1.87,4.11,4.11,0,0,0,.93,1.29,4.58,4.58,0,0,0,1.36.84,12.89,12.89,0,0,0,1.59.53l4.19,1a12.6,12.6,0,0,1,1.34.4,5.69,5.69,0,0,1,1.25.65,3.27,3.27,0,0,1,.92,1,2.54,2.54,0,0,1,.36,1.37,3,3,0,0,1-.5,1.75,4.3,4.3,0,0,1-1.25,1.19,5.77,5.77,0,0,1-1.62.67,6.92,6.92,0,0,1-1.61.21,11,11,0,0,1-2.42-.26,5.25,5.25,0,0,1-2-.82,4,4,0,0,1-1.3-1.55,5.21,5.21,0,0,1-.45-2.42H74.44a6.69,6.69,0,0,0,.46,3,5.2,5.2,0,0,0,1.54,2,6.65,6.65,0,0,0,2.42,1.16,12.92,12.92,0,0,0,5.92.09,7.71,7.71,0,0,0,2-.79A4.44,4.44,0,0,0,88,67.06a5.19,5.19,0,0,0,.71-1.19,4.07,4.07,0,0,0,.32-1.12,7.94,7.94,0,0,0,.06-.85,4.56,4.56,0,0,0-.38-2,4,4,0,0,0-1-1.38M46.86,50.09,39.31,68.88H41.2L43.46,63H52l2.29,5.84h1.92L48.86,50.09ZM44,61.51l3.76-9.63,3.63,9.63ZM192.13,39.83H10v1.62H192.13ZM52.34,32.69a14.72,14.72,0,0,0,14.9-14.86C67.24,9.36,60.74,3,52.11,3A14.69,14.69,0,0,0,37.4,18,14.68,14.68,0,0,0,52.34,32.69M52.26,6.32A11.34,11.34,0,0,1,63.69,17.79,11.37,11.37,0,1,1,41,18,11.35,11.35,0,0,1,52.26,6.32M13.88,11.61,31.61,31.89l.1.11H32.8V3.66H29.37V24.31L11.5,3.66H10.44V32h3.44ZM11.57,50.09H9.78V68.88H22.09V67.35H11.57Z"/></svg>