<svg width="640" height="200" xmlns="http://www.w3.org/2000/svg">
 <style type="text/css">.st0{fill:#231815;}</style>

 <g>
  <title>background</title>
  <rect fill="none" id="canvas_background" height="202" width="642" y="-1" x="-1"/>
 </g>
 <g>
  <title>Layer 1</title>
  <path id="svg_1" d="m594.6,181.9l26.2,0l0,6.6l-86.2,0l0,-6.6l26.2,0l0,-163.4l-26.2,0l0,-6.6l86.2,0l0,6.6l-26.2,0l0,163.4zm-92.7,-77.9c0,9.1 -6.5,16.5 -16.6,16.5s-16.6,-7.4 -16.6,-16.5c0,-9.1 6.5,-16.6 16.6,-16.6s16.6,7.5 16.6,16.6m-130.3,-2.2c25.6,0 30.9,-19.8 30.9,-41.5c0,-19 -1.3,-41.8 -30.9,-41.8l-30.9,0l0,83.3l30.9,0zm-90.9,-89.9l85.3,0c33.6,0 73.7,6.9 73.7,48.6c0,37 -38.6,47.8 -69,47.8l-30.1,0l0,73.5l28,0l0,6.6l-88,0l0,-6.6l26.2,0l0,-163.3l-26.2,0l0,-6.6l0.1,0zm-23,92.1c0,9.1 -6.5,16.5 -16.6,16.5c-10,0 -16.6,-7.4 -16.6,-16.5s6.5,-16.6 16.6,-16.6c10.1,0 16.6,7.5 16.6,16.6m-111.2,-36.3c0,-9.5 -1.3,-18.5 -4,-26.4c-5.3,-16.1 -16.1,-26.7 -39.4,-26.7c-23.5,0 -34.9,10.6 -39.6,26.7c-2.4,7.9 -4,16.9 -4,26.4l0,57.6c0,10.3 0.5,20.4 2.9,29.6c4.8,18.2 15.9,30.9 40.7,30.9c25.1,0 35.9,-12.7 40.7,-30.9c2.4,-9.3 2.6,-19.3 2.6,-29.6l0,-57.6l0.1,0zm-125.8,28c0,-43.6 38.3,-87.7 82.5,-87.7c44.1,0 82.2,44.1 82.2,87.7c0,48.4 -29.9,96.7 -82.2,96.7c-52.4,0 -82.5,-48.3 -82.5,-96.7" class="st0"/>
 </g>
</svg>